PathFileType  4	(X/Y/Z) C:\Users\antoi\Documents\MyRepositories\mobilecap\ResultsAnalysis
DataRate	CameraRate	NumFrames	NumMarkers	Units	OrigDataRate	OrigDataStartFrame	OrigNumFrames
100.0	100.0	4	51	mm	100.0	111	294
Frame#	Time	r_knee			r_shank_antsup			r_ankle			r_calc			r_5meta			r_toe			L_knee			L_shank_antsup			L_ankle			L_calc			L_5meta			L_toe			r_sh2			r_sh3			r_sh4			L_sh2			L_sh3			r_thigh1			r_thigh2			r_thigh3			r_thigh4			r_thigh5			L_thigh1			L_thigh2			L_thigh3			L_thigh4			r.ASIS			r.PSIS			L.ASIS			L.PSIS			C7			R_Shoulder			L_Shoulder			R_Sternum			L_Sternum			R_humerus			R_elbow_med			R_elbow_lat			R_forearm			R_wrist_radius			R_wrist_ulna			L_humerus			L_elbow_med			L_elbow_lat			L_forearm			L_wrist_radius			L_wrist_ulna			R_HJC			L_HJC			R_HJC_reg			L_HJC_reg			
		X1	Y1	Z1	X2	Y2	Z2	X3	Y3	Z3	X4	Y4	Z4	X5	Y5	Z5	X6	Y6	Z6	X7	Y7	Z7	X8	Y8	Z8	X9	Y9	Z9	X10	Y10	Z10	X11	Y11	Z11	X12	Y12	Z12	X13	Y13	Z13	X14	Y14	Z14	X15	Y15	Z15	X16	Y16	Z16	X17	Y17	Z17	X18	Y18	Z18	X19	Y19	Z19	X20	Y20	Z20	X21	Y21	Z21	X22	Y22	Z22	X23	Y23	Z23	X24	Y24	Z24	X25	Y25	Z25	X26	Y26	Z26	X27	Y27	Z27	X28	Y28	Z28	X29	Y29	Z29	X30	Y30	Z30	X31	Y31	Z31	X32	Y32	Z32	X33	Y33	Z33	X34	Y34	Z34	X35	Y35	Z35	X36	Y36	Z36	X37	Y37	Z37	X38	Y38	Z38	X39	Y39	Z39	X40	Y40	Z40	X41	Y41	Z41	X42	Y42	Z42	X43	Y43	Z43	X44	Y44	Z44	X45	Y45	Z45	X46	Y46	Z46	X47	Y47	Z47	X48	Y48	Z48	X49	Y49	Z49	X50	Y50	Z50	X51	Y51	Z51	

111	1.10000000	-997.42739	703.95107	-447.02336	-1014.78557	587.00651	-464.28410	-1232.42897	408.91737	-456.51854	-1297.84019	370.26916	-503.21571	-1137.43278	347.78781	-418.89065	-1099.70153	360.16722	-463.80227	-968.89213	701.48961	-710.41098	-990.37299	590.85623	-665.70685	-1230.10208	421.03343	-713.83086	-1293.98298	394.88282	-675.76150	-1137.03577	348.72471	-741.05797	-1093.93102	356.16485	-687.52529	-1088.75066	501.18871	-471.34969	-1055.55032	613.50467	-406.95975	-1141.13414	541.29098	-420.60143	-1010.25140	638.00989	-739.95367	-1092.64124	549.16500	-756.22766	-932.61812	1008.50816	-430.56314	-920.25584	899.65591	-434.42163	-963.75965	867.92652	-395.10227	-1036.10326	993.30240	-390.25475	-1018.63805	879.21059	-392.28590	-936.33458	996.41995	-743.78260	-904.27931	860.84688	-733.20606	-1043.54379	976.87112	-770.93446	-1011.20265	839.35977	-751.95531	-909.20503	1141.18945	-454.40194	-1063.02073	1248.79406	-527.47133	-904.18347	1137.84964	-702.43899	-1064.23275	1248.15150	-646.03328	-904.31038	1666.03506	-582.53767	-846.26487	1629.24881	-434.19670	-843.22105	1628.03963	-732.44532	-789.12983	1588.94775	-558.63880	-790.05190	1587.32145	-602.23727	-807.05324	1519.34278	-369.37732	-815.33249	1303.13877	-387.88533	-785.50926	1330.11311	-321.90457	-675.37931	1259.55877	-317.41073	-595.50185	1193.03292	-327.26338	-612.59045	1172.36001	-301.77180	-795.56616	1496.77777	-795.18521	-795.19753	1293.17561	-762.25276	-778.95398	1315.68797	-832.30505	-690.57187	1258.97218	-842.77262	-601.35330	1167.43271	-825.04710	-616.02314	1149.11172	-847.51039	-1019.39120	1108.27105	-483.68580	-1012.72942	1100.45860	-672.78502	-1000.56347	1102.45080	-488.07683	-1002.23734	1101.56314	-651.81874	
112	1.11000000	-997.14648	708.58474	-445.48506	-1014.55636	591.58451	-462.70411	-1231.61324	410.67849	-455.80572	-1296.70046	374.65999	-502.88526	-1137.13319	347.70031	-418.94059	-1098.98474	359.84981	-463.59653	-970.94939	704.85122	-710.58521	-992.14702	594.31437	-665.97240	-1229.51605	422.19389	-714.55727	-1293.83608	395.73243	-675.74582	-1136.91214	348.79169	-741.09304	-1093.82864	356.06025	-687.62851	-1087.61470	505.05745	-470.07027	-1055.65256	617.63997	-405.38173	-1140.55694	544.86079	-419.64072	-1011.26926	641.05423	-740.12037	-1092.46402	550.97428	-756.32237	-920.78695	1010.97507	-431.59395	-912.41066	901.62995	-434.70056	-956.90364	871.38156	-395.60960	-1024.53927	999.77841	-390.28619	-1011.36500	884.94291	-392.07441	-924.94865	998.82140	-742.96847	-898.96828	861.67378	-732.25864	-1032.64781	983.62417	-772.22220	-1006.50774	844.92350	-752.27858	-894.31645	1147.40146	-455.32815	-1049.39790	1253.46105	-528.26569	-888.99771	1144.97361	-703.15506	-1050.47680	1253.08596	-646.56782	-900.42183	1674.13326	-582.68614	-841.55917	1639.79949	-435.12316	-839.16488	1638.65134	-731.97970	-783.80629	1598.78028	-558.55405	-784.71748	1597.39423	-602.44980	-798.68091	1531.91746	-369.38132	-800.95248	1315.77146	-386.36136	-770.94757	1343.90075	-321.11736	-656.88670	1279.84220	-319.03711	-573.59233	1217.97379	-330.78814	-588.81035	1196.67085	-304.28746	-787.53654	1509.61018	-795.15428	-781.67723	1305.81775	-763.81687	-765.26013	1329.08596	-833.45789	-673.77238	1277.50127	-842.78763	-580.24437	1190.73263	-822.92104	-593.05994	1171.90562	-846.25921	-1004.08862	1113.28036	-484.74056	-997.12533	1106.15291	-673.85597	-985.15623	1107.87817	-489.15899	-986.64801	1107.35981	-652.76240	
113	1.12000000	-996.60282	714.96024	-443.02764	-1013.75551	597.88242	-460.27440	-1230.22521	413.87459	-454.46733	-1294.78262	380.93745	-502.26747	-1136.54859	347.89247	-418.70220	-1097.86528	359.27267	-463.22805	-972.84467	710.47610	-711.73319	-993.58343	599.28900	-667.07026	-1228.21041	424.47869	-715.62298	-1293.31456	397.53139	-675.76103	-1136.57108	348.98786	-741.20732	-1093.38823	355.79215	-687.74383	-1085.68755	510.62580	-467.90301	-1055.34041	623.52934	-402.88944	-1139.43035	549.74840	-418.01956	-1012.00375	645.53205	-740.96178	-1091.78561	554.28933	-757.10311	-908.48319	1014.75515	-432.34480	-904.20866	904.97704	-434.62712	-949.92562	876.68589	-395.17624	-1012.39746	1007.60394	-390.12747	-1003.63300	892.31503	-391.27000	-913.69002	1002.34163	-742.39422	-893.40417	864.15092	-731.61276	-1020.80578	991.72706	-773.49041	-1001.35515	852.14428	-752.87946	-878.68467	1154.94576	-456.32463	-1035.17729	1259.16315	-529.11220	-873.31055	1153.33137	-704.01757	-1036.17465	1259.03382	-647.20036	-896.24768	1682.70946	-582.54223	-836.59691	1651.24478	-436.00309	-834.98772	1650.25738	-731.43348	-778.13626	1609.26331	-558.76033	-778.96334	1607.97124	-602.54130	-790.53680	1545.30538	-369.48419	-787.10954	1329.34430	-384.72320	-756.84015	1358.61054	-320.39743	-639.54539	1300.82484	-320.77995	-553.74672	1243.30104	-334.46566	-567.01852	1221.54995	-306.83241	-779.61479	1523.50287	-795.36854	-768.40804	1319.41708	-765.20147	-751.85833	1343.76918	-834.28556	-657.75480	1296.94890	-842.30580	-560.87094	1214.27625	-821.01971	-572.23792	1195.50600	-845.39978	-988.00034	1119.46002	-485.82573	-980.87180	1112.94416	-674.95708	-969.01339	1114.43501	-490.27973	-970.39430	1114.25623	-653.79306	
114	1.13000000	-995.06829	723.10291	-439.67742	-1011.81169	606.01183	-456.93524	-1227.27612	419.12491	-453.44879	-1291.76850	389.29174	-501.44023	-1135.55057	348.63664	-417.86164	-1096.25848	358.36421	-462.52191	-973.67521	717.98823	-713.63022	-992.78428	606.58533	-667.79313	-1225.90740	428.06016	-716.94210	-1291.80125	401.08059	-675.78727	-1135.89789	349.38975	-741.53017	-1092.53316	355.21843	-687.88266	-1082.71753	517.97638	-464.98696	-1054.00729	631.36058	-399.78320	-1137.30111	556.66994	-415.75460	-1011.91294	651.57605	-742.68574	-1090.07591	559.49706	-758.98636	-895.72796	1019.85357	-432.67632	-895.41259	909.77763	-433.84578	-942.09968	884.21864	-392.83268	-999.63458	1016.62179	-389.87390	-995.11136	901.29992	-389.87650	-901.86703	1007.40206	-741.98429	-887.13736	868.36774	-731.25313	-1008.15343	1001.06696	-775.34340	-995.21183	860.82770	-754.31398	-862.80329	1163.65272	-457.30553	-1020.58399	1265.81582	-529.93797	-857.45323	1162.52114	-704.53450	-1021.51391	1265.80606	-648.00082	-891.67070	1691.77482	-582.30911	-831.34519	1663.36734	-436.89766	-830.63317	1662.70866	-730.83215	-771.95836	1620.30591	-559.08166	-772.80080	1618.85558	-602.58159	-782.50089	1559.33992	-369.84283	-773.83537	1343.71265	-383.10090	-743.10959	1374.11181	-319.70956	-623.32435	1321.87598	-322.66243	-535.71960	1268.32588	-337.74035	-547.22943	1246.21794	-309.34144	-771.73105	1538.24269	-795.65404	-755.60588	1333.97293	-766.60367	-738.74830	1359.58361	-834.99303	-642.46069	1317.04273	-841.64212	-543.13164	1237.57218	-819.70236	-553.36434	1219.13667	-844.78574	-971.62849	1126.74499	-486.72909	-964.31745	1120.55770	-675.86457	-952.54560	1122.13690	-491.27922	-953.83144	1122.12357	-654.48520	
